<svg width="138" height="28" viewBox="0 0 138 28" fill="none" xmlns="http://www.w3.org/2000/svg">
<path d="M0 20.6769V0H3.46051V8.70154H13.2533V0H16.6995V20.6769H13.2533V11.9467H3.46051V20.6769H0Z" fill="white"/>
<path d="M26.1385 21.1077C24.5877 21.1077 23.2332 20.7583 22.0749 20.0595C20.9166 19.3607 20.0168 18.3986 19.3754 17.1733C18.7436 15.9385 18.4277 14.5217 18.4277 12.9231C18.4277 11.2957 18.7532 9.8694 19.4041 8.6441C20.0551 7.4188 20.9597 6.46154 22.118 5.77231C23.2763 5.08308 24.6164 4.73846 26.1385 4.73846C27.6988 4.73846 29.0582 5.08786 30.2164 5.78667C31.3747 6.48547 32.2746 7.45231 32.9159 8.68718C33.5573 9.91248 33.878 11.3244 33.878 12.9231C33.878 14.5313 33.5525 15.9528 32.9016 17.1877C32.2602 18.413 31.3604 19.375 30.2021 20.0738C29.0438 20.7631 27.6893 21.1077 26.1385 21.1077ZM26.1385 17.8626C27.517 17.8626 28.5412 17.4031 29.2113 16.4841C29.8814 15.5651 30.2164 14.3781 30.2164 12.9231C30.2164 11.4202 29.8766 10.2236 29.197 9.33333C28.5173 8.43351 27.4978 7.98359 26.1385 7.98359C25.2099 7.98359 24.4441 8.19419 23.8411 8.61539C23.2476 9.02701 22.8072 9.60615 22.52 10.3528C22.2329 11.0899 22.0893 11.9467 22.0893 12.9231C22.0893 14.426 22.4291 15.6274 23.1087 16.5272C23.798 17.4174 24.8079 17.8626 26.1385 17.8626Z" fill="white"/>
<path d="M54.2294 20.6769V11.2574C54.2294 10.1949 53.9661 9.36684 53.4396 8.77333C52.9131 8.17026 52.2 7.86872 51.3001 7.86872C50.7449 7.86872 50.2471 7.99795 49.8068 8.25641C49.3665 8.5053 49.0171 8.87863 48.7586 9.37641C48.5001 9.86462 48.3709 10.4485 48.3709 11.1282L46.8345 10.2236C46.8249 9.15145 47.0642 8.20855 47.5524 7.39487C48.0502 6.57162 48.7203 5.93026 49.5627 5.47077C50.4051 5.01128 51.3432 4.78154 52.3771 4.78154C54.0906 4.78154 55.402 5.29846 56.3114 6.33231C57.2304 7.35658 57.6899 8.70633 57.6899 10.3815V20.6769H54.2294ZM35.577 20.6769V5.16923H38.6355V9.97949H39.0663V20.6769H35.577ZM44.9247 20.6769V11.3005C44.9247 10.2188 44.6615 9.37641 44.135 8.77333C43.6085 8.17026 42.8906 7.86872 41.9812 7.86872C41.1005 7.86872 40.3921 8.17026 39.856 8.77333C39.3295 9.37641 39.0663 10.1614 39.0663 11.1282L37.5155 10.0944C37.5155 9.08923 37.7644 8.18461 38.2622 7.38051C38.76 6.57641 39.43 5.94462 40.2724 5.48513C41.1244 5.01607 42.0769 4.78154 43.1299 4.78154C44.2882 4.78154 45.255 5.03043 46.0304 5.5282C46.8153 6.01641 47.3993 6.6865 47.7822 7.53846C48.1747 8.38086 48.3709 9.33333 48.3709 10.3959V20.6769H44.9247Z" fill="white"/>
<path d="M66.7971 21.1077C65.2271 21.1077 63.8487 20.7679 62.6617 20.0882C61.4747 19.4086 60.5461 18.4656 59.876 17.2595C59.2155 16.0533 58.8853 14.6653 58.8853 13.0954C58.8853 11.401 59.2107 9.93162 59.8617 8.68718C60.5126 7.43316 61.4172 6.46154 62.5755 5.77231C63.7338 5.08308 65.074 4.73846 66.596 4.73846C68.2042 4.73846 69.5683 5.11658 70.6883 5.87282C71.8179 6.61949 72.6555 7.67726 73.2012 9.04615C73.7468 10.415 73.9526 12.028 73.8186 13.8851H70.3868V12.6215C70.3772 10.9368 70.0805 9.70667 69.4965 8.93128C68.9126 8.1559 67.9936 7.76821 66.7396 7.76821C65.3229 7.76821 64.2699 8.20855 63.5806 9.08923C62.8914 9.96034 62.5468 11.2383 62.5468 12.9231C62.5468 14.493 62.8914 15.7087 63.5806 16.5703C64.2699 17.4318 65.275 17.8626 66.596 17.8626C67.448 17.8626 68.1803 17.6759 68.7929 17.3026C69.4152 16.9197 69.8938 16.3692 70.2288 15.6513L73.6463 16.6851C73.0528 18.0827 72.1338 19.1692 70.8894 19.9446C69.6545 20.72 68.2904 21.1077 66.7971 21.1077ZM61.4555 13.8851V11.2718H72.1242V13.8851H61.4555Z" fill="white"/>
<path d="M75.5865 20.6769V0H84.1301C84.3312 0 84.5896 0.00957253 84.9055 0.0287176C85.2214 0.0382907 85.5134 0.0670088 85.7814 0.114872C86.978 0.296752 87.964 0.694016 88.7394 1.30667C89.5243 1.91932 90.1035 2.6947 90.4768 3.63282C90.8597 4.56137 91.0512 5.59521 91.0512 6.73436C91.0512 7.86393 90.8597 8.89778 90.4768 9.8359C90.0939 10.7644 89.51 11.535 88.725 12.1477C87.9496 12.7603 86.9684 13.1576 85.7814 13.3395C85.5134 13.3778 85.2166 13.4065 84.8912 13.4256C84.5753 13.4448 84.3216 13.4544 84.1301 13.4544H79.0471V20.6769H75.5865ZM79.0471 10.2236H83.9865C84.178 10.2236 84.3934 10.214 84.6327 10.1949C84.872 10.1757 85.0922 10.1374 85.2932 10.08C85.8676 9.93641 86.3175 9.68274 86.6429 9.31898C86.978 8.95521 87.2125 8.54359 87.3465 8.0841C87.4901 7.62461 87.5619 7.1747 87.5619 6.73436C87.5619 6.29402 87.4901 5.8441 87.3465 5.38462C87.2125 4.91556 86.978 4.49915 86.6429 4.13538C86.3175 3.77162 85.8676 3.51795 85.2932 3.37436C85.0922 3.31692 84.872 3.28342 84.6327 3.27385C84.3934 3.2547 84.178 3.24513 83.9865 3.24513H79.0471V10.2236Z" fill="white"/>
<path d="M96.4358 21.1077C95.3158 21.1077 94.3681 20.8971 93.5927 20.4759C92.8173 20.0451 92.2286 19.4756 91.8265 18.7672C91.4341 18.0588 91.2378 17.2786 91.2378 16.4267C91.2378 15.68 91.3623 15.0099 91.6112 14.4164C91.86 13.8133 92.243 13.2964 92.7599 12.8656C93.2768 12.4253 93.9469 12.0663 94.7701 11.7887C95.3924 11.5877 96.1199 11.4058 96.9527 11.2431C97.7951 11.0803 98.7045 10.932 99.6809 10.7979C100.667 10.6544 101.696 10.5012 102.768 10.3385L101.533 11.0421C101.543 9.96991 101.303 9.18017 100.815 8.67282C100.327 8.16547 99.5038 7.9118 98.3455 7.9118C97.6467 7.9118 96.9718 8.07453 96.3209 8.4C95.67 8.72547 95.2153 9.28547 94.9568 10.08L91.7978 9.08923C92.1807 7.77778 92.9082 6.72479 93.9804 5.93026C95.0621 5.13573 96.5171 4.73846 98.3455 4.73846C99.724 4.73846 100.935 4.96342 101.978 5.41333C103.031 5.86325 103.812 6.60034 104.319 7.62462C104.596 8.17026 104.764 8.73026 104.821 9.30462C104.879 9.8694 104.908 10.4868 104.908 11.1569V20.6769H101.878V17.3169L102.38 17.8626C101.682 18.9826 100.863 19.8058 99.925 20.3323C98.9965 20.8492 97.8334 21.1077 96.4358 21.1077ZM97.125 18.3508C97.91 18.3508 98.58 18.212 99.1353 17.9344C99.6905 17.6568 100.131 17.3169 100.456 16.9149C100.791 16.5128 101.016 16.1347 101.131 15.7805C101.313 15.3402 101.414 14.8376 101.433 14.2728C101.461 13.6985 101.476 13.2342 101.476 12.88L102.538 13.1959C101.495 13.3586 100.6 13.5022 99.8532 13.6267C99.1065 13.7511 98.4652 13.8708 97.9291 13.9856C97.393 14.0909 96.9192 14.2106 96.5076 14.3446C96.1055 14.4882 95.7657 14.6557 95.4881 14.8472C95.2105 15.0386 94.9951 15.2588 94.8419 15.5077C94.6983 15.7566 94.6265 16.0485 94.6265 16.3836C94.6265 16.7665 94.7223 17.1063 94.9137 17.4031C95.1052 17.6903 95.3828 17.92 95.7465 18.0923C96.1199 18.2646 96.5794 18.3508 97.125 18.3508Z" fill="white"/>
<path d="M113.729 28C112.867 28 112.039 27.866 111.245 27.598C110.46 27.3299 109.751 26.9422 109.12 26.4349C108.488 25.9371 107.971 25.334 107.569 24.6256L110.757 23.0462C111.053 23.6109 111.47 24.0274 112.006 24.2954C112.551 24.573 113.131 24.7118 113.743 24.7118C114.461 24.7118 115.103 24.5826 115.667 24.3241C116.232 24.0752 116.668 23.7019 116.974 23.2041C117.29 22.7159 117.438 22.1033 117.419 21.3662V16.9579H117.85V5.16923H120.88V21.4236C120.88 21.8161 120.861 22.1894 120.822 22.5436C120.794 22.9074 120.741 23.2615 120.664 23.6062C120.435 24.6113 119.994 25.4345 119.343 26.0759C118.692 26.7268 117.883 27.2103 116.917 27.5262C115.959 27.8421 114.897 28 113.729 28ZM113.427 21.1077C112.001 21.1077 110.757 20.7487 109.694 20.0308C108.631 19.3128 107.808 18.3364 107.224 17.1015C106.64 15.8667 106.348 14.4738 106.348 12.9231C106.348 11.3532 106.64 9.95556 107.224 8.73026C107.818 7.49539 108.655 6.52376 109.737 5.81538C110.819 5.09744 112.092 4.73846 113.557 4.73846C115.031 4.73846 116.266 5.09744 117.261 5.81538C118.266 6.52376 119.027 7.49539 119.544 8.73026C120.061 9.96513 120.32 11.3627 120.32 12.9231C120.32 14.4643 120.061 15.8571 119.544 17.1015C119.027 18.3364 118.257 19.3128 117.232 20.0308C116.208 20.7487 114.94 21.1077 113.427 21.1077ZM113.959 18.0062C114.887 18.0062 115.634 17.7956 116.199 17.3744C116.773 16.9436 117.189 16.3453 117.448 15.5795C117.716 14.8137 117.85 13.9282 117.85 12.9231C117.85 11.9084 117.716 11.0229 117.448 10.2667C117.189 9.50085 116.783 8.90735 116.227 8.48616C115.672 8.05539 114.954 7.84 114.074 7.84C113.145 7.84 112.379 8.06975 111.776 8.52923C111.173 8.97915 110.728 9.59179 110.441 10.3672C110.154 11.133 110.01 11.985 110.01 12.9231C110.01 13.8708 110.149 14.7323 110.426 15.5077C110.714 16.2735 111.149 16.8814 111.733 17.3313C112.317 17.7812 113.059 18.0062 113.959 18.0062Z" fill="white"/>
<path d="M130.521 21.1077C128.951 21.1077 127.572 20.7679 126.385 20.0882C125.198 19.4086 124.27 18.4656 123.6 17.2595C122.939 16.0533 122.609 14.6653 122.609 13.0954C122.609 11.401 122.934 9.93162 123.585 8.68718C124.236 7.43316 125.141 6.46154 126.299 5.77231C127.457 5.08308 128.798 4.73846 130.32 4.73846C131.928 4.73846 133.292 5.11658 134.412 5.87282C135.541 6.61949 136.379 7.67726 136.925 9.04615C137.47 10.415 137.676 12.028 137.542 13.8851H134.11V12.6215C134.101 10.9368 133.804 9.70667 133.22 8.93128C132.636 8.1559 131.717 7.76821 130.463 7.76821C129.046 7.76821 127.993 8.20855 127.304 9.08923C126.615 9.96034 126.27 11.2383 126.27 12.9231C126.27 14.493 126.615 15.7087 127.304 16.5703C127.993 17.4318 128.999 17.8626 130.32 17.8626C131.172 17.8626 131.904 17.6759 132.517 17.3026C133.139 16.9197 133.617 16.3692 133.952 15.6513L137.37 16.6851C136.776 18.0827 135.857 19.1692 134.613 19.9446C133.378 20.72 132.014 21.1077 130.521 21.1077ZM125.179 13.8851V11.2718H135.848V13.8851H125.179Z" fill="white"/>
<mask id="mask0_8582_566" style="mask-type:alpha" maskUnits="userSpaceOnUse" x="0" y="0" width="138" height="28">
<path d="M0 20.6769V0H3.46051V8.70154H13.2533V0H16.6995V20.6769H13.2533V11.9467H3.46051V20.6769H0Z" fill="#9DB7FF"/>
<path d="M26.1385 21.1077C24.5877 21.1077 23.2332 20.7583 22.0749 20.0595C20.9166 19.3607 20.0168 18.3986 19.3754 17.1733C18.7436 15.9385 18.4277 14.5217 18.4277 12.9231C18.4277 11.2957 18.7532 9.8694 19.4041 8.6441C20.0551 7.4188 20.9597 6.46154 22.118 5.77231C23.2763 5.08308 24.6164 4.73846 26.1385 4.73846C27.6988 4.73846 29.0582 5.08786 30.2164 5.78667C31.3747 6.48547 32.2746 7.45231 32.9159 8.68718C33.5573 9.91248 33.878 11.3244 33.878 12.9231C33.878 14.5313 33.5525 15.9528 32.9016 17.1877C32.2602 18.413 31.3604 19.375 30.2021 20.0738C29.0438 20.7631 27.6893 21.1077 26.1385 21.1077ZM26.1385 17.8626C27.517 17.8626 28.5412 17.4031 29.2113 16.4841C29.8814 15.5651 30.2164 14.3781 30.2164 12.9231C30.2164 11.4202 29.8766 10.2236 29.197 9.33333C28.5173 8.43351 27.4978 7.98359 26.1385 7.98359C25.2099 7.98359 24.4441 8.19419 23.8411 8.61539C23.2476 9.02701 22.8072 9.60615 22.52 10.3528C22.2329 11.0899 22.0893 11.9467 22.0893 12.9231C22.0893 14.426 22.4291 15.6274 23.1087 16.5272C23.798 17.4174 24.8079 17.8626 26.1385 17.8626Z" fill="#9DB7FF"/>
<path d="M54.2294 20.6769V11.2574C54.2294 10.1949 53.9661 9.36684 53.4396 8.77333C52.9131 8.17026 52.2 7.86872 51.3001 7.86872C50.7449 7.86872 50.2471 7.99795 49.8068 8.25641C49.3665 8.5053 49.0171 8.87863 48.7586 9.37641C48.5001 9.86462 48.3709 10.4485 48.3709 11.1282L46.8345 10.2236C46.8249 9.15145 47.0642 8.20855 47.5524 7.39487C48.0502 6.57162 48.7203 5.93026 49.5627 5.47077C50.4051 5.01128 51.3432 4.78154 52.3771 4.78154C54.0906 4.78154 55.402 5.29846 56.3114 6.33231C57.2304 7.35658 57.6899 8.70633 57.6899 10.3815V20.6769H54.2294ZM35.577 20.6769V5.16923H38.6355V9.97949H39.0663V20.6769H35.577ZM44.9247 20.6769V11.3005C44.9247 10.2188 44.6615 9.37641 44.135 8.77333C43.6085 8.17026 42.8906 7.86872 41.9812 7.86872C41.1005 7.86872 40.3921 8.17026 39.856 8.77333C39.3295 9.37641 39.0663 10.1614 39.0663 11.1282L37.5155 10.0944C37.5155 9.08923 37.7644 8.18461 38.2622 7.38051C38.76 6.57641 39.43 5.94462 40.2724 5.48513C41.1244 5.01607 42.0769 4.78154 43.1299 4.78154C44.2882 4.78154 45.255 5.03043 46.0304 5.5282C46.8153 6.01641 47.3993 6.6865 47.7822 7.53846C48.1747 8.38086 48.3709 9.33333 48.3709 10.3959V20.6769H44.9247Z" fill="#9DB7FF"/>
<path d="M66.7971 21.1077C65.2271 21.1077 63.8487 20.7679 62.6617 20.0882C61.4747 19.4086 60.5461 18.4656 59.876 17.2595C59.2155 16.0533 58.8853 14.6653 58.8853 13.0954C58.8853 11.401 59.2107 9.93162 59.8617 8.68718C60.5126 7.43316 61.4172 6.46154 62.5755 5.77231C63.7338 5.08308 65.074 4.73846 66.596 4.73846C68.2042 4.73846 69.5683 5.11658 70.6883 5.87282C71.8179 6.61949 72.6555 7.67726 73.2012 9.04615C73.7468 10.415 73.9526 12.028 73.8186 13.8851H70.3868V12.6215C70.3772 10.9368 70.0805 9.70667 69.4965 8.93128C68.9126 8.1559 67.9936 7.76821 66.7396 7.76821C65.3229 7.76821 64.2699 8.20855 63.5806 9.08923C62.8914 9.96034 62.5468 11.2383 62.5468 12.9231C62.5468 14.493 62.8914 15.7087 63.5806 16.5703C64.2699 17.4318 65.275 17.8626 66.596 17.8626C67.448 17.8626 68.1803 17.6759 68.7929 17.3026C69.4152 16.9197 69.8938 16.3692 70.2288 15.6513L73.6463 16.6851C73.0528 18.0827 72.1338 19.1692 70.8894 19.9446C69.6545 20.72 68.2904 21.1077 66.7971 21.1077ZM61.4555 13.8851V11.2718H72.1242V13.8851H61.4555Z" fill="#9DB7FF"/>
<path d="M75.5865 20.6769V0H84.1301C84.3312 0 84.5896 0.00957253 84.9055 0.0287176C85.2214 0.0382907 85.5134 0.0670088 85.7814 0.114872C86.978 0.296752 87.964 0.694016 88.7394 1.30667C89.5243 1.91932 90.1035 2.6947 90.4768 3.63282C90.8597 4.56137 91.0512 5.59521 91.0512 6.73436C91.0512 7.86393 90.8597 8.89778 90.4768 9.8359C90.0939 10.7644 89.51 11.535 88.725 12.1477C87.9496 12.7603 86.9684 13.1576 85.7814 13.3395C85.5134 13.3778 85.2166 13.4065 84.8912 13.4256C84.5753 13.4448 84.3216 13.4544 84.1301 13.4544H79.0471V20.6769H75.5865ZM79.0471 10.2236H83.9865C84.178 10.2236 84.3934 10.214 84.6327 10.1949C84.872 10.1757 85.0922 10.1374 85.2932 10.08C85.8676 9.93641 86.3175 9.68274 86.6429 9.31898C86.978 8.95521 87.2125 8.54359 87.3465 8.0841C87.4901 7.62461 87.5619 7.1747 87.5619 6.73436C87.5619 6.29402 87.4901 5.8441 87.3465 5.38462C87.2125 4.91556 86.978 4.49915 86.6429 4.13538C86.3175 3.77162 85.8676 3.51795 85.2932 3.37436C85.0922 3.31692 84.872 3.28342 84.6327 3.27385C84.3934 3.2547 84.178 3.24513 83.9865 3.24513H79.0471V10.2236Z" fill="#9DB7FF"/>
<path d="M96.4358 21.1077C95.3158 21.1077 94.3681 20.8971 93.5927 20.4759C92.8173 20.0451 92.2286 19.4756 91.8265 18.7672C91.4341 18.0588 91.2378 17.2786 91.2378 16.4267C91.2378 15.68 91.3623 15.0099 91.6112 14.4164C91.86 13.8133 92.243 13.2964 92.7599 12.8656C93.2768 12.4253 93.9469 12.0663 94.7701 11.7887C95.3924 11.5877 96.1199 11.4058 96.9527 11.2431C97.7951 11.0803 98.7045 10.932 99.6809 10.7979C100.667 10.6544 101.696 10.5012 102.768 10.3385L101.533 11.0421C101.543 9.96991 101.303 9.18017 100.815 8.67282C100.327 8.16547 99.5038 7.9118 98.3455 7.9118C97.6467 7.9118 96.9718 8.07453 96.3209 8.4C95.67 8.72547 95.2153 9.28547 94.9568 10.08L91.7978 9.08923C92.1807 7.77778 92.9082 6.72479 93.9804 5.93026C95.0621 5.13573 96.5171 4.73846 98.3455 4.73846C99.724 4.73846 100.935 4.96342 101.978 5.41333C103.031 5.86325 103.812 6.60034 104.319 7.62462C104.596 8.17026 104.764 8.73026 104.821 9.30462C104.879 9.8694 104.908 10.4868 104.908 11.1569V20.6769H101.878V17.3169L102.38 17.8626C101.682 18.9826 100.863 19.8058 99.925 20.3323C98.9965 20.8492 97.8334 21.1077 96.4358 21.1077ZM97.125 18.3508C97.91 18.3508 98.58 18.212 99.1353 17.9344C99.6905 17.6568 100.131 17.3169 100.456 16.9149C100.791 16.5128 101.016 16.1347 101.131 15.7805C101.313 15.3402 101.414 14.8376 101.433 14.2728C101.461 13.6985 101.476 13.2342 101.476 12.88L102.538 13.1959C101.495 13.3586 100.6 13.5022 99.8532 13.6267C99.1065 13.7511 98.4652 13.8708 97.9291 13.9856C97.393 14.0909 96.9192 14.2106 96.5076 14.3446C96.1055 14.4882 95.7657 14.6557 95.4881 14.8472C95.2105 15.0386 94.9951 15.2588 94.8419 15.5077C94.6983 15.7566 94.6265 16.0485 94.6265 16.3836C94.6265 16.7665 94.7223 17.1063 94.9137 17.4031C95.1052 17.6903 95.3828 17.92 95.7465 18.0923C96.1199 18.2646 96.5794 18.3508 97.125 18.3508Z" fill="#9DB7FF"/>
<path d="M113.729 28C112.867 28 112.039 27.866 111.245 27.598C110.46 27.3299 109.751 26.9422 109.12 26.4349C108.488 25.9371 107.971 25.334 107.569 24.6256L110.757 23.0462C111.053 23.6109 111.47 24.0274 112.006 24.2954C112.551 24.573 113.131 24.7118 113.743 24.7118C114.461 24.7118 115.103 24.5826 115.667 24.3241C116.232 24.0752 116.668 23.7019 116.974 23.2041C117.29 22.7159 117.438 22.1033 117.419 21.3662V16.9579H117.85V5.16923H120.88V21.4236C120.88 21.8161 120.861 22.1894 120.822 22.5436C120.794 22.9074 120.741 23.2615 120.664 23.6062C120.435 24.6113 119.994 25.4345 119.343 26.0759C118.692 26.7268 117.883 27.2103 116.917 27.5262C115.959 27.8421 114.897 28 113.729 28ZM113.427 21.1077C112.001 21.1077 110.757 20.7487 109.694 20.0308C108.631 19.3128 107.808 18.3364 107.224 17.1015C106.64 15.8667 106.348 14.4738 106.348 12.9231C106.348 11.3532 106.64 9.95556 107.224 8.73026C107.818 7.49539 108.655 6.52376 109.737 5.81538C110.819 5.09744 112.092 4.73846 113.557 4.73846C115.031 4.73846 116.266 5.09744 117.261 5.81538C118.266 6.52376 119.027 7.49539 119.544 8.73026C120.061 9.96513 120.32 11.3627 120.32 12.9231C120.32 14.4643 120.061 15.8571 119.544 17.1015C119.027 18.3364 118.257 19.3128 117.232 20.0308C116.208 20.7487 114.94 21.1077 113.427 21.1077ZM113.959 18.0062C114.887 18.0062 115.634 17.7956 116.199 17.3744C116.773 16.9436 117.189 16.3453 117.448 15.5795C117.716 14.8137 117.85 13.9282 117.85 12.9231C117.85 11.9084 117.716 11.0229 117.448 10.2667C117.189 9.50085 116.783 8.90735 116.227 8.48616C115.672 8.05539 114.954 7.84 114.074 7.84C113.145 7.84 112.379 8.06975 111.776 8.52923C111.173 8.97915 110.728 9.59179 110.441 10.3672C110.154 11.133 110.01 11.985 110.01 12.9231C110.01 13.8708 110.149 14.7323 110.426 15.5077C110.714 16.2735 111.149 16.8814 111.733 17.3313C112.317 17.7812 113.059 18.0062 113.959 18.0062Z" fill="#9DB7FF"/>
<path d="M130.521 21.1077C128.951 21.1077 127.572 20.7679 126.385 20.0882C125.198 19.4086 124.27 18.4656 123.6 17.2595C122.939 16.0533 122.609 14.6653 122.609 13.0954C122.609 11.401 122.934 9.93162 123.585 8.68718C124.236 7.43316 125.141 6.46154 126.299 5.77231C127.457 5.08308 128.798 4.73846 130.32 4.73846C131.928 4.73846 133.292 5.11658 134.412 5.87282C135.541 6.61949 136.379 7.67726 136.925 9.04615C137.47 10.415 137.676 12.028 137.542 13.8851H134.11V12.6215C134.101 10.9368 133.804 9.70667 133.22 8.93128C132.636 8.1559 131.717 7.76821 130.463 7.76821C129.046 7.76821 127.993 8.20855 127.304 9.08923C126.615 9.96034 126.27 11.2383 126.27 12.9231C126.27 14.493 126.615 15.7087 127.304 16.5703C127.993 17.4318 128.999 17.8626 130.32 17.8626C131.172 17.8626 131.904 17.6759 132.517 17.3026C133.139 16.9197 133.617 16.3692 133.952 15.6513L137.37 16.6851C136.776 18.0827 135.857 19.1692 134.613 19.9446C133.378 20.72 132.014 21.1077 130.521 21.1077ZM125.179 13.8851V11.2718H135.848V13.8851H125.179Z" fill="#9DB7FF"/>
</mask>
<g mask="url(#mask0_8582_566)">
<rect x="-5" y="-10" width="79" height="47" fill="#FCFCFC"/>
</g>
</svg>
